<?xml version="1.0" encoding="utf-8"?>
<!-- Generator: Adobe Illustrator 16.0.0, SVG Export Plug-In . SVG Version: 6.00 Build 0)  -->
<!DOCTYPE svg PUBLIC "-//W3C//DTD SVG 1.1//EN" "http://www.w3.org/Graphics/SVG/1.1/DTD/svg11.dtd">
<svg version="1.1" id="Layer_1" xmlns="http://www.w3.org/2000/svg" xmlns:xlink="http://www.w3.org/1999/xlink" x="0px" y="0px"
	 width="262px" height="70px" viewBox="0 0 262 70" enable-background="new 0 0 262 70" xml:space="preserve">
<g>
	<path fill="#FFFFFF" d="M80.904,21.393c0-1.016,0.349-1.871,1.048-2.568c0.698-0.699,1.556-1.049,2.571-1.049
		s1.87,0.35,2.568,1.049c0.699,0.697,1.049,1.553,1.049,2.568s-0.35,1.873-1.049,2.572c-0.698,0.697-1.553,1.047-2.568,1.047
		s-1.873-0.35-2.571-1.047C81.253,23.266,80.904,22.409,80.904,21.393 M81.048,30.821c0-0.92,0.237-1.73,0.713-2.43
		c0.477-0.695,1.397-1.045,2.763-1.045c1.362,0,2.283,0.35,2.76,1.045c0.476,0.699,0.713,1.51,0.713,2.43v19.185
		c0,0.922-0.237,1.73-0.713,2.426c-0.477,0.699-1.397,1.047-2.76,1.047c-1.365,0-2.286-0.348-2.763-1.047
		c-0.476-0.695-0.713-1.504-0.713-2.426V30.821"/>
	<path fill="#FFFFFF" d="M92.297,21.821c0-0.793,0.111-1.426,0.332-1.9c0.255-0.508,0.587-0.906,1.001-1.193
		c0.413-0.283,0.857-0.475,1.333-0.57c0.508-0.125,1.03-0.189,1.57-0.189h2.287c1.206,0,2.125,0.27,2.759,0.807
		c0.667,0.508,1.207,1.432,1.621,2.762l6.808,21.994h0.095l6.713-21.994c0.411-1.33,0.936-2.254,1.57-2.762
		c0.667-0.537,1.604-0.807,2.81-0.807h2.19c0.508,0,1.015,0.064,1.523,0.189c0.508,0.096,0.966,0.287,1.379,0.57
		c0.415,0.287,0.731,0.686,0.951,1.193c0.256,0.475,0.382,1.107,0.382,1.9v27.853c0,0.984-0.27,1.871-0.81,2.664
		c-0.509,0.762-1.395,1.141-2.666,1.141c-1.269,0-2.172-0.379-2.712-1.141c-0.509-0.793-0.764-1.68-0.764-2.664V28.442h-0.094
		l-7.283,22.751c-0.256,0.828-0.667,1.414-1.239,1.766c-0.572,0.344-1.269,0.52-2.093,0.52c-0.828,0-1.523-0.176-2.097-0.52
		c-0.572-0.352-0.982-0.938-1.239-1.766l-7.283-22.751h-0.094v21.232c0,0.984-0.27,1.871-0.81,2.664
		c-0.508,0.762-1.397,1.141-2.666,1.141c-1.271,0-2.175-0.379-2.715-1.141c-0.508-0.793-0.761-1.68-0.761-2.664V21.821"/>
	<path fill="#FFFFFF" d="M147.743,41.154c-0.383,0.348-0.871,0.598-1.477,0.758c-0.602,0.156-1.109,0.27-1.523,0.336l-2.523,0.375
		c-1.457,0.227-2.57,0.59-3.332,1.098s-1.145,1.285-1.145,2.332c0,0.793,0.336,1.477,1,2.047c0.699,0.539,1.652,0.809,2.859,0.809
		c0.949,0,1.809-0.141,2.57-0.426s1.395-0.668,1.902-1.145c0.539-0.473,0.953-1.016,1.238-1.617c0.285-0.605,0.43-1.223,0.43-1.855
		V41.154 M154.692,46.146c0,0.73,0.035,1.336,0.098,1.812c0.094,0.477,0.176,0.887,0.234,1.234c0.098,0.32,0.176,0.605,0.238,0.859
		c0.098,0.223,0.145,0.473,0.145,0.762c0,0.793-0.316,1.445-0.949,1.953c-0.641,0.477-1.367,0.715-2.191,0.715
		c-1.492,0-2.539-0.398-3.145-1.195c-0.602-0.824-0.918-1.773-0.949-2.855c-1.367,1.523-2.844,2.59-4.43,3.191
		c-1.555,0.574-3.25,0.859-5.094,0.859c-0.984,0-1.949-0.18-2.906-0.523c-0.918-0.32-1.762-0.777-2.52-1.383
		c-0.73-0.602-1.319-1.332-1.763-2.188c-0.445-0.895-0.666-1.891-0.666-3c0-1.43,0.253-2.621,0.76-3.574
		c0.509-0.98,1.208-1.762,2.099-2.332c0.887-0.602,1.918-1.062,3.094-1.379c1.172-0.316,2.426-0.555,3.758-0.715l4.238-0.477
		c0.414-0.031,0.797-0.098,1.145-0.191c0.379-0.094,0.695-0.234,0.949-0.426c0.285-0.191,0.512-0.43,0.668-0.715
		c0.16-0.316,0.238-0.729,0.238-1.236c0-1.016-0.441-1.744-1.332-2.191c-0.859-0.443-1.875-0.666-3.047-0.666
		c-1.301,0-2.316,0.207-3.051,0.619c-0.727,0.383-1.344,0.811-1.852,1.285c-0.508,0.477-0.984,0.92-1.43,1.333
		c-0.445,0.379-1.016,0.57-1.715,0.57c-0.887,0-1.605-0.254-2.141-0.762c-0.539-0.541-0.809-1.173-0.809-1.906
		c0-0.697,0.234-1.412,0.711-2.143c0.477-0.727,1.176-1.395,2.098-1.998c0.949-0.635,2.109-1.143,3.473-1.523
		c1.395-0.412,2.984-0.617,4.762-0.617c1.652,0,3.172,0.141,4.57,0.43c1.398,0.252,2.586,0.68,3.57,1.283
		c0.984,0.572,1.746,1.316,2.285,2.238c0.57,0.887,0.855,1.953,0.855,3.188V46.146"/>
	<path fill="#FFFFFF" d="M157.325,35.106c0-1.428,0.32-2.633,0.953-3.621c0.633-0.982,1.445-1.775,2.426-2.377
		c1.02-0.637,2.145-1.08,3.379-1.332c1.242-0.289,2.461-0.43,3.668-0.43c1.332,0,2.633,0.127,3.906,0.379
		c1.266,0.256,2.395,0.619,3.379,1.094c1.016,0.447,1.824,1.002,2.426,1.668c0.605,0.635,0.906,1.348,0.906,2.145
		c0,0.824-0.254,1.537-0.762,2.141s-1.223,0.906-2.145,0.906c-0.664,0-1.219-0.158-1.664-0.478c-0.41-0.346-0.855-0.715-1.332-1.096
		c-0.445-0.41-0.984-0.775-1.621-1.094c-0.633-0.348-1.488-0.523-2.57-0.523c-1.203,0-2.172,0.176-2.902,0.523
		s-1.098,0.887-1.098,1.619c0,0.826,0.352,1.376,1.051,1.666c0.699,0.285,1.586,0.555,2.664,0.809l2.902,0.668
		c0.984,0.219,1.984,0.504,3,0.855c1.051,0.348,1.984,0.809,2.812,1.379c0.824,0.57,1.504,1.285,2.047,2.145
		c0.539,0.824,0.809,1.84,0.809,3.047c0,1.43-0.316,2.664-0.953,3.711c-0.602,1.016-1.414,1.875-2.43,2.574
		c-1.016,0.664-2.172,1.156-3.473,1.477c-1.27,0.344-2.555,0.52-3.855,0.52c-1.59,0-3.082-0.176-4.477-0.52
		c-1.395-0.32-2.617-0.75-3.668-1.285c-1.047-0.574-1.871-1.242-2.473-2c-0.605-0.766-0.906-1.574-0.906-2.434
		c0-0.758,0.223-1.422,0.664-1.996c0.449-0.602,1.16-0.906,2.145-0.906c0.762,0,1.383,0.227,1.859,0.668
		c0.473,0.445,0.984,0.938,1.523,1.477c0.566,0.539,1.219,1.031,1.953,1.477c0.758,0.441,1.789,0.664,3.094,0.664
		c1.234,0,2.219-0.234,2.949-0.715c0.73-0.477,1.094-1.078,1.094-1.809c0-0.887-0.363-1.477-1.094-1.762
		c-0.699-0.285-1.664-0.586-2.902-0.902l-4.098-1c-1.016-0.254-1.965-0.559-2.855-0.906c-0.855-0.348-1.617-0.809-2.281-1.379
		c-0.637-0.574-1.145-1.254-1.523-2.047C157.501,37.279,157.325,36.279,157.325,35.106"/>
	<path fill="#FFFFFF" d="M183.513,32.534h-1.188c-0.988,0-1.699-0.191-2.145-0.57c-0.414-0.381-0.617-0.953-0.617-1.713
		c0-0.764,0.203-1.334,0.617-1.715c0.445-0.383,1.156-0.572,2.145-0.572h1.188v-4.236c0-1.143,0.316-2,0.949-2.572
		c0.641-0.602,1.48-0.904,2.527-0.904s1.887,0.303,2.52,0.904c0.641,0.572,0.957,1.43,0.957,2.572v4.236h2.094
		c1.016,0,1.793,0.176,2.332,0.523c0.539,0.352,0.809,0.938,0.809,1.764c0,0.824-0.27,1.412-0.809,1.76
		c-0.539,0.35-1.316,0.523-2.332,0.523h-2.094v13.902c0,1.078,0.602,1.617,1.809,1.617h1c0.758,0,1.348,0.207,1.762,0.621
		c0.441,0.41,0.664,0.98,0.664,1.715c0,2.062-1.68,3.09-5.047,3.09c-2.535,0-4.363-0.508-5.473-1.523
		c-1.113-1.047-1.668-2.602-1.668-4.664V32.534"/>
	<path fill="#FFFFFF" d="M215.083,37.721c-0.191-1.617-0.824-2.931-1.906-3.949c-1.078-1.047-2.395-1.57-3.949-1.57
		c-1.746,0-3.141,0.49-4.191,1.477c-1.047,0.984-1.762,2.332-2.141,4.042H215.083 M202.896,41.721c0,1.844,0.555,3.363,1.668,4.57
		c1.141,1.172,2.727,1.762,4.758,1.762c1.305,0,2.316-0.172,3.047-0.523c0.762-0.348,1.383-0.73,1.859-1.141
		c0.504-0.445,0.98-0.844,1.426-1.191c0.445-0.383,1.016-0.574,1.715-0.574c0.824,0,1.508,0.305,2.047,0.906
		c0.539,0.57,0.809,1.176,0.809,1.809c0,1.051-0.383,1.969-1.141,2.762c-0.734,0.762-1.652,1.395-2.766,1.902
		c-1.074,0.477-2.25,0.844-3.52,1.098s-2.43,0.379-3.477,0.379c-2.445,0-4.508-0.363-6.191-1.094
		c-1.68-0.762-3.059-1.746-4.141-2.953c-1.078-1.203-1.855-2.555-2.332-4.047c-0.477-1.488-0.715-3-0.715-4.523
		c0-2.027,0.301-3.871,0.906-5.519c0.602-1.648,1.461-3.062,2.57-4.236c1.141-1.205,2.523-2.127,4.141-2.762
		c1.621-0.666,3.465-0.998,5.523-0.998c2,0,3.777,0.332,5.332,0.998c1.555,0.635,2.871,1.49,3.953,2.572
		c1.078,1.047,1.887,2.254,2.426,3.617c0.57,1.363,0.859,2.761,0.859,4.187c0,1.207-0.223,2.016-0.668,2.434
		c-0.414,0.375-1.207,0.566-2.379,0.566H202.896"/>
	<path fill="#FFFFFF" d="M224.188,30.581c0-1.045,0.305-1.84,0.906-2.381c0.602-0.568,1.348-0.854,2.234-0.854
		c0.891,0,1.637,0.285,2.238,0.854c0.605,0.541,0.906,1.336,0.906,2.381v2.67h0.094c0.191-0.732,0.445-1.445,0.762-2.143
		c0.32-0.699,0.699-1.318,1.145-1.859c0.477-0.57,1.016-1.029,1.617-1.379c0.633-0.35,1.379-0.523,2.238-0.523
		c1.113,0,2.016,0.316,2.715,0.951c0.727,0.635,1.094,1.445,1.094,2.428c0,0.635-0.098,1.174-0.289,1.617
		c-0.188,0.447-0.457,0.811-0.805,1.096c-0.316,0.256-0.684,0.445-1.094,0.572c-0.414,0.127-0.828,0.191-1.242,0.191h-1.238
		c-1.395,0-2.473,0.572-3.234,1.712c-0.73,1.111-1.094,3.111-1.094,5.998v8.094c0,0.922-0.238,1.73-0.719,2.426
		c-0.473,0.699-1.391,1.047-2.758,1.047c-1.363,0-2.285-0.348-2.762-1.047c-0.477-0.695-0.715-1.504-0.715-2.426V30.581"/>
	<path fill="#FFFFFF" d="M239.767,35.106c0-1.428,0.316-2.633,0.953-3.621c0.633-0.982,1.445-1.775,2.426-2.377
		c1.016-0.637,2.145-1.08,3.383-1.332c1.238-0.289,2.457-0.43,3.664-0.43c1.332,0,2.633,0.127,3.906,0.379
		c1.266,0.256,2.395,0.619,3.378,1.094c1.016,0.447,1.824,1.002,2.426,1.668c0.605,0.635,0.906,1.348,0.906,2.145
		c0,0.824-0.254,1.537-0.762,2.141s-1.219,0.906-2.145,0.906c-0.664,0-1.218-0.158-1.663-0.478
		c-0.414-0.346-0.855-0.715-1.336-1.096c-0.441-0.41-0.98-0.775-1.617-1.094c-0.633-0.348-1.492-0.523-2.57-0.523
		c-1.207,0-2.172,0.176-2.902,0.523s-1.098,0.887-1.098,1.619c0,0.826,0.352,1.376,1.051,1.666c0.699,0.285,1.582,0.555,2.664,0.809
		l2.902,0.668c0.984,0.219,1.984,0.504,3,0.855c1.05,0.348,1.983,0.809,2.812,1.379c0.824,0.57,1.504,1.285,2.043,2.145
		c0.543,0.824,0.812,1.84,0.812,3.047c0,1.43-0.32,2.664-0.953,3.711c-0.602,1.016-1.414,1.875-2.43,2.574
		c-1.016,0.664-2.171,1.156-3.476,1.477c-1.266,0.344-2.551,0.52-3.852,0.52c-1.59,0-3.082-0.176-4.48-0.52
		c-1.391-0.32-2.613-0.75-3.664-1.285c-1.047-0.574-1.871-1.242-2.477-2c-0.602-0.766-0.902-1.574-0.902-2.434
		c0-0.758,0.223-1.422,0.664-1.996c0.449-0.602,1.16-0.906,2.145-0.906c0.762,0,1.379,0.227,1.859,0.668
		c0.473,0.445,0.984,0.938,1.523,1.477c0.57,0.539,1.223,1.031,1.949,1.477c0.762,0.441,1.793,0.664,3.098,0.664
		c1.234,0,2.219-0.234,2.949-0.715c0.73-0.477,1.094-1.078,1.094-1.809c0-0.887-0.363-1.477-1.094-1.762
		c-0.699-0.285-1.668-0.586-2.902-0.902l-4.098-1c-1.016-0.254-1.965-0.559-2.855-0.906c-0.855-0.348-1.617-0.809-2.281-1.379
		c-0.641-0.574-1.148-1.254-1.527-2.047C239.942,37.279,239.767,36.279,239.767,35.106"/>
	<path fill="#FFFFFF" d="M32.887,0.393L1.552,15.396c0,0-0.188,0.104-0.399,0.236c-0.18,0.115-0.375,0.256-0.482,0.324
		C-0.016,16.412,0,17.088,0,17.088L0.022,52.15l0.621,1.051l31.991,16.374c0,0,0.816,0.305,1.378,0.305
		c0.619,0,1.32-0.445,1.32-0.445L67.141,53.24l0.773-1.441l-0.005-6.727l0.011-7.254l-0.017-3.57l-0.024-16.981
		c0,0,0.012-0.381-0.226-0.736c-0.272-0.408-2.086-1.258-2.086-1.258L34.72,0.387L32.887,0.393z"/>
	<path fill="#0083CA" d="M57.833,44.537c0,0.406,0.301,0.578,0.674,0.391l8.756-4.438c0.372-0.188,0.659-0.668,0.659-1.074
		l-0.015-9.517c0-0.404-0.272-0.578-0.645-0.391l-8.756,4.439c-0.373,0.188-0.674,0.668-0.674,1.074V44.537z"/>
	<path fill="#E67E23" d="M46.292,50.494c0,0.406,0.301,0.578,0.674,0.391l8.757-4.438c0.372-0.188,0.673-0.672,0.673-1.074v-9.518
		c0-0.404-0.301-0.58-0.673-0.392L46.965,39.9c-0.373,0.191-0.674,0.672-0.674,1.074V50.494z"/>
	<path fill="#006CB7" d="M34.659,56.311c0,0.406,0.302,0.578,0.674,0.391l8.757-4.438c0.372-0.188,0.674-0.668,0.674-1.074v-9.52
		c0-0.402-0.302-0.578-0.674-0.391l-8.757,4.441c-0.372,0.188-0.674,0.668-0.674,1.07V56.311z"/>
	<path fill="#0083CA" d="M57.764,31.899c0,0.404,0.29,0.578,0.663,0.391l8.762-4.439c0.371-0.188,0.708-0.668,0.708-1.072v-4.693
		l-0.014-1.928l-0.002-2.899c0-0.404-0.326-0.578-0.698-0.391l-8.751,4.44c-0.372,0.188-0.668,0.668-0.668,1.074V31.899z"/>
	<path fill="#E67E23" d="M46.312,37.756c0,0.402,0.291,0.578,0.664,0.391l8.762-4.437c0.372-0.189,0.68-0.67,0.68-1.074v-9.52
		c0-0.404-0.312-0.578-0.685-0.391l-8.752,4.439c-0.373,0.188-0.669,0.668-0.669,1.072V37.756z"/>
	<path fill="#006CB7" d="M34.68,43.564c0,0.402,0.291,0.578,0.663,0.391l8.763-4.438c0.371-0.191,0.679-0.672,0.679-1.074v-9.519
		c0-0.404-0.312-0.578-0.685-0.391l-8.751,4.439c-0.373,0.188-0.669,0.668-0.669,1.074V43.564z"/>
	<path fill="#B13432" d="M54.534,21.002c0.368,0.18,0.378,0.471,0.021,0.652l-8.46,4.262c-0.362,0.184-0.955,0.184-1.324,0
		l-8.639-4.285c-0.365-0.182-0.366-0.473-0.004-0.652l8.479-4.2c0.357-0.178,0.942-0.178,1.306,0.002L54.534,21.002z"/>
	<path fill="#00A0DC" d="M65.673,15.316c0.368,0.178,0.382,0.465,0.032,0.641l-8.294,4.157c-0.355,0.18-0.942,0.18-1.311,0
		l-8.617-4.211c-0.364-0.178-0.37-0.465-0.014-0.641l8.312-4.119c0.351-0.172,0.929-0.172,1.292,0.004L65.673,15.316z"/>
	<path fill="#00A0DC" d="M43.155,26.739c0.368,0.184,0.374,0.482,0.01,0.664l-8.631,4.352c-0.369,0.186-0.969,0.186-1.339,0
		l-8.659-4.363c-0.365-0.184-0.361-0.48,0.009-0.664l8.647-4.285c0.364-0.18,0.955-0.18,1.32,0.002L43.155,26.739z"/>
	<path fill="#00A0DC" d="M42.978,15.312c0.363,0.178,0.367,0.465,0.01,0.641l-8.48,4.19c-0.363,0.18-0.953,0.18-1.316-0.002
		l-8.507-4.221c-0.36-0.178-0.355-0.465,0.008-0.643l8.497-4.127c0.358-0.174,0.938-0.172,1.298,0.004L42.978,15.312z"/>
	<path fill="#2B93D1" d="M54.155,9.744c0.362,0.174,0.372,0.455,0.021,0.629L45.86,14.48c-0.355,0.176-0.939,0.176-1.301-0.002
		l-8.488-4.148c-0.359-0.174-0.36-0.457-0.004-0.631L44.4,5.652c0.353-0.17,0.927-0.168,1.284,0.004L54.155,9.744z"/>
	<path fill="#00A0DC" d="M31.579,20.991c0.363,0.182,0.362,0.475-0.002,0.654l-8.65,4.273c-0.369,0.184-0.966,0.184-1.33-0.002
		l-8.527-4.293c-0.359-0.184-0.351-0.475,0.021-0.656l8.666-4.209c0.365-0.178,0.953-0.176,1.312,0.002L31.579,20.991z"/>
	<path fill="#2B93D1" d="M31.546,9.748c0.358,0.176,0.357,0.459-0.001,0.631l-8.5,4.117c-0.363,0.176-0.949,0.176-1.308-0.002
		l-8.38-4.156c-0.354-0.176-0.345-0.459,0.02-0.633l8.515-4.057c0.359-0.17,0.937-0.168,1.29,0.004L31.546,9.748z"/>
	<path fill="#2B93D1" d="M42.751,4.275c0.357,0.172,0.361,0.449,0.01,0.619l-8.336,4.037c-0.356,0.174-0.937,0.172-1.293-0.002
		L24.77,4.844c-0.354-0.172-0.35-0.451,0.008-0.621l8.353-3.978c0.353-0.168,0.923-0.166,1.275,0.004L42.751,4.275z"/>
	<path fill="#00A0DC" d="M20.121,15.33c0.357,0.178,0.353,0.465-0.014,0.643l-8.668,4.2c-0.372,0.18-0.964,0.178-1.322-0.002
		l-8.397-4.231c-0.354-0.178-0.341-0.467,0.031-0.645l8.683-4.135c0.367-0.176,0.95-0.174,1.305,0.002L20.121,15.33z"/>
	<path fill="#E67E23" d="M46.231,63.146c0,0.401,0.302,0.577,0.675,0.39l8.756-4.437c0.372-0.188,0.675-0.672,0.675-1.074v-9.52
		c0-0.402-0.303-0.578-0.675-0.391l-8.756,4.438c-0.373,0.191-0.675,0.672-0.675,1.074V63.146z"/>
	<path fill="#1268B3" d="M10.126,44.537c0,0.406-0.302,0.578-0.675,0.391L0.695,40.49c-0.372-0.188-0.674-0.668-0.674-1.074v-9.517
		c0-0.404,0.302-0.578,0.674-0.391l8.757,4.439c0.373,0.188,0.675,0.668,0.675,1.074V44.537z"/>
	<path fill="#0E5595" d="M21.637,50.463c0,0.402-0.301,0.578-0.674,0.391l-8.757-4.441c-0.371-0.188-0.673-0.668-0.673-1.07v-9.52
		c0-0.404,0.302-0.58,0.673-0.39l8.757,4.437c0.373,0.188,0.674,0.668,0.674,1.074V50.463z"/>
	<path fill="#06447C" d="M33.233,56.354c0,0.402-0.302,0.578-0.674,0.391l-8.758-4.438c-0.371-0.191-0.673-0.672-0.673-1.078v-9.516
		c0-0.406,0.302-0.578,0.673-0.391l8.758,4.438c0.372,0.188,0.674,0.668,0.674,1.074V56.354z"/>
	<path fill="#1268B3" d="M10.105,31.801c0,0.404-0.291,0.578-0.664,0.391l-8.762-4.439C0.307,27.565,0,27.083,0,26.678V17.16
		c0-0.404,0.312-0.58,0.684-0.393l8.752,4.442c0.373,0.188,0.669,0.668,0.669,1.072V31.801z"/>
	<path fill="#0E5595" d="M21.617,37.721c0,0.406-0.291,0.582-0.663,0.395l-8.763-4.439c-0.372-0.189-0.679-0.67-0.679-1.074v-9.518
		c0-0.406,0.312-0.58,0.684-0.393l8.752,4.439c0.373,0.188,0.669,0.67,0.669,1.074V37.721z"/>
	<path fill="#06447C" d="M33.211,43.611c0,0.406-0.291,0.582-0.663,0.395l-8.763-4.441c-0.372-0.188-0.68-0.668-0.68-1.074v-9.517
		c0-0.402,0.313-0.578,0.685-0.391l8.752,4.439c0.373,0.188,0.669,0.67,0.669,1.074V43.611z"/>
	<path fill="#0E5595" d="M21.623,63.201c0,0.401-0.302,0.577-0.674,0.39l-8.757-4.495c-0.372-0.188-0.675-0.668-0.675-1.07v-9.488
		c0-0.406,0.303-0.582,0.675-0.391l8.757,4.438c0.372,0.188,0.674,0.668,0.674,1.074V63.201z"/>
	<path fill="#06447C" d="M33.233,69.149c0,0.402-0.302,0.578-0.674,0.391l-8.758-4.488c-0.371-0.188-0.673-0.668-0.673-1.07v-9.519
		c0-0.406,0.302-0.578,0.673-0.391l8.758,4.438c0.372,0.188,0.674,0.668,0.674,1.074V69.149z"/>
	<path fill="#1268B3" d="M10.126,57.311c0,0.406-0.302,0.582-0.675,0.395l-8.757-4.48c-0.372-0.188-0.674-0.676-0.674-1.082v-9.52
		c0-0.402,0.302-0.578,0.674-0.391l8.757,4.441c0.373,0.188,0.675,0.668,0.675,1.074V57.311z"/>
	<path fill="#006CB7" d="M34.659,69.036c0,0.406,0.302,0.578,0.674,0.391l8.757-4.438c0.372-0.188,0.674-0.668,0.674-1.074v-9.519
		c0-0.402-0.302-0.578-0.674-0.391l-8.757,4.441c-0.372,0.188-0.674,0.668-0.674,1.07V69.036z"/>
	<path fill="#0083CA" d="M57.833,57.225c0,0.406,0.301,0.578,0.674,0.391l8.756-4.438c0.372-0.188,0.659-0.668,0.659-1.074
		l-0.015-9.52c0-0.402-0.272-0.578-0.645-0.391l-8.756,4.441c-0.373,0.188-0.674,0.668-0.674,1.07V57.225z"/>
</g>
<rect x="-219.5" y="-184.5" fill="none" width="700" height="440.333"/>
<rect x="92.716" y="62.75" fill="#411514" width="0" height="0.25"/>
</svg>
